<?xml version="1.0" encoding="UTF-8"?><svg id="Calque_2" xmlns="http://www.w3.org/2000/svg" xmlns:xlink="http://www.w3.org/1999/xlink" viewBox="0 0 268.67 148.77"><defs><style>.cls-1{fill:url(#Dégradé_sans_nom_192);}.cls-2{fill:#fff;}</style><linearGradient id="Dégradé_sans_nom_192" x1="0" y1="-5384.88" x2="218.69" y2="-5384.88" gradientTransform="translate(0 -5252.74) scale(1 -1)" gradientUnits="userSpaceOnUse"><stop offset="0" stop-color="#17edb6"/><stop offset="1" stop-color="#4154ff"/></linearGradient></defs><g id="Calque_2-2"><path class="cls-2" d="M54.34,1.43c6.8-3.64,15.55.03,15.31,7.15.19,4.83-.94,12.71-6.63,16.94-.97.72-6.76,3.55-11.9-4.42,0,0-11.34-11.86,3.23-19.67ZM214.97,3.85c-3.39-2.58-10.91-2.94-14.58-.43-6.01,4.75-1.67,15.25,4.17,21.31,11.3,11.73,19.67-13.69,10.58-20.74l-.18-.14h0ZM154.54,59.03c-7.76.91-12.8,14.18-11.06,20.35,1.36,5.96,13.51,7.66,18.88,4.02,8.31-4.94,2.05-23.6-7.63-24.37h-.19Z"/><path class="cls-2" d="M104.81,2.87c11.32-1.92-20.59,83.87-47.64,80.37C30.5,79.8,8.93,14.08,12.56,4.01c3.94-10.92,27.64,35.24,41.75,45.88C72.01,63.24,89.83,5.41,104.81,2.87ZM105.78,82.29c-12.46,1.94,22.78-83.9,52.55-80.43,29.35,3.4,53.01,69.1,49.01,79.17-4.35,10.93-27.72-36.73-43.24-47.35-19.48-13.33-41.83,46.05-58.32,48.61ZM236.06,81.38c29.16,20.42,18.87-90.72,4.34-77.97-14.53,12.75-22.07,65.56-4.34,77.97Z"/><path class="cls-1" d="M26.06,126.93c0-3.74-1.06-6.45-3.19-8.14-2.13-1.68-5.69-2.53-10.68-2.53H0v32.13h7.17v-10.25h4.97l7.12,10.25h8.82l-8.13-11.49c4.08-1.5,6.11-4.83,6.11-9.97ZM17.42,130.74c-.89.8-2.56,1.19-5.01,1.19h-5.25v-9.51h5.38c2.3,0,3.91.32,4.83.97.92.64,1.38,1.83,1.38,3.56s-.45,2.99-1.33,3.79ZM38.71,142.05h16.5v6.34h-23.67v-32.13h23.16v6.39h-16v6.61h14.39v6.11h-14.39v6.67h.01ZM72.05,116.27h-11.35v32.12h10.98c6.13,0,10.69-1.45,13.67-4.36,2.99-2.91,4.48-6.87,4.48-11.86s-1.53-8.9-4.6-11.7c-3.06-2.81-7.46-4.21-13.19-4.21h0ZM79.98,139.57c-1.76,1.65-4.28,2.48-7.56,2.48h-4.55v-19.53h4c3.65,0,6.35.85,8.11,2.55,1.76,1.71,2.65,4.13,2.65,7.29s-.88,5.56-2.65,7.21ZM117.59,132.49c1.68,1.5,2.53,3.69,2.53,6.58s-1.08,5.21-3.24,7.01c-2.16,1.79-5.01,2.69-8.53,2.69-5.08,0-9.67-1.88-13.74-5.65l4.28-5.25c3.46,3.04,6.66,4.55,9.61,4.55,1.32,0,2.35-.28,3.1-.85.75-.56,1.13-1.33,1.13-2.29s-.4-1.74-1.2-2.3c-.79-.57-2.37-1.15-4.73-1.72-3.74-.89-6.48-2.05-8.21-3.48-1.73-1.42-2.6-3.66-2.6-6.71s1.1-5.4,3.29-7.06c2.19-1.65,4.92-2.48,8.2-2.48,2.15,0,4.29.37,6.44,1.1,2.15.74,4.01,1.78,5.61,3.13l-3.63,5.24c-2.78-2.12-5.67-3.18-8.64-3.18-1.2,0-2.14.28-2.83.85s-1.04,1.32-1.04,2.25.42,1.68,1.27,2.23c.84.55,2.78,1.2,5.84,1.95,3.05.75,5.41,1.88,7.1,3.38h-.01ZM140.31,115.53c-4.75,0-8.75,1.58-12,4.75s-4.87,7.11-4.87,11.84,1.62,8.67,4.87,11.84,7.24,4.76,12,4.76,8.74-1.59,12-4.76c3.25-3.17,4.87-7.11,4.87-11.84s-1.62-8.67-4.87-11.84-7.24-4.75-12-4.75ZM147.11,139.45c-1.84,2.01-4.1,3.01-6.78,3.01s-4.95-1.01-6.78-3.01c-1.84-2.01-2.75-4.44-2.75-7.31s.92-5.31,2.75-7.33c1.84-2.02,4.1-3.04,6.78-3.04s4.94,1.02,6.78,3.04c1.84,2.02,2.76,4.46,2.76,7.33s-.92,5.3-2.76,7.31ZM179.48,116.26h7.77l-11.12,19.45v12.68h-7.17v-12.68l-11.13-19.45h7.77l6.94,11.95,6.94-11.95h0ZM218.68,116.27v17.97c0,4.66-1.28,8.24-3.86,10.73-2.57,2.5-5.87,3.75-9.87,3.75s-7.32-1.26-9.91-3.77c-2.59-2.51-3.88-6.08-3.88-10.71v-17.97h7.17v17.74c0,2.58.6,4.61,1.79,6.09s2.8,2.23,4.83,2.23,3.62-.75,4.8-2.23,1.77-3.51,1.77-6.09v-17.74h7.17,0Z"/><path class="cls-2" d="M255.98,138.84h-19.26l-4.41,9.68h-1.09l14.54-31.76h1l14.72,31.76h-1.05l-4.45-9.68ZM255.53,137.93l-9.27-20.13-9.13,20.13h18.4Z"/><path class="cls-2" d="M268.67,116.75v31.76h-.91v-31.76s.91,0,.91,0Z"/></g></svg>